Coordinates
version=1
nRows=17
nColumns=40
inDegrees=yes

Units are S.I. units (second, meters, Newtons, ...)
Angles are in degrees.

endheader
time	pelvis_tilt	pelvis_list	pelvis_rotation	pelvis_tx	pelvis_ty	pelvis_tz	hip_flexion_r	hip_adduction_r	hip_rotation_r	knee_angle_r	knee_angle_r_beta	ankle_angle_r	subtalar_angle_r	mtp_angle_r	hip_flexion_l	hip_adduction_l	hip_rotation_l	knee_angle_l	knee_angle_l_beta	ankle_angle_l	subtalar_angle_l	mtp_angle_l	lumbar_extension	lumbar_bending	lumbar_rotation	arm_flex_r	arm_add_r	arm_rot_r	elbow_flex_r	pro_sup_r	wrist_flex_r	wrist_dev_r	arm_flex_l	arm_add_l	arm_rot_l	elbow_flex_l	pro_sup_l	wrist_flex_l	wrist_dev_l
      0.00000000	     -1.13242974	     -3.93810763	     10.21960048	     -1.28562508	      0.94031799	     -0.96692353	     19.67883262	      0.92770139	    -16.82083059	    -22.33779076	     -0.38986800	     -0.67000003	     -7.68100292	     -0.75566739	     -7.14101703	     12.37028733	     20.76902494	    -31.86660952	     -0.55617726	     -1.90586532	      6.84139003	     -1.28297552	     -5.35514633	      6.68788487	     -7.27209533	     -0.98720313	     -9.59195517	    -23.55900593	     16.51702084	     89.95437384	      0.00000000	      0.00000000	      5.69832506	      7.99368684	    -11.47090327	     30.94435698	     89.95437384	      0.00000000	      0.00000000
      0.01000000	     -1.13804042	     -3.96795300	     10.24611465	     -1.27851697	      0.94137725	     -0.96474230	     19.06822334	      1.21931891	    -16.83230867	    -22.07554701	     -0.38529098	     -0.13099745	     -7.41207112	     -0.84419803	     -6.19555622	     12.83428141	     20.06758572	    -33.69349726	     -0.58806246	     -2.99541810	      7.69043235	     -1.12346460	     -5.17227125	      6.64101344	     -7.38109280	     -0.86426835	     -9.58376057	    -23.26637707	     16.15195153	     89.95437384	      0.00000000	      0.00000000	      5.73958904	      7.82201067	    -11.63414180	     31.28879874	     89.95437384	      0.00000000	      0.00000000
      0.02000000	     -1.46829251	     -4.12303838	     10.31473540	     -1.27164567	      0.94169996	     -0.96272948	     18.83371371	      1.51561763	    -17.12178409	    -21.76708586	     -0.37990732	      0.14736604	     -7.14438839	     -0.88775072	     -4.64937717	     13.36660681	     19.19667281	    -35.88613304	     -0.62633118	     -2.86513361	      8.90396334	     -1.25054487	     -4.62054744	      6.68545513	     -7.40628072	     -1.00422393	     -9.60013658	    -23.07157349	     16.20385716	     89.95437384	      0.00000000	      0.00000000	      5.72206525	      7.72924499	    -12.16122400	     31.80346097	     89.95437384	      0.00000000	      0.00000000
      0.03000000	     -1.42982215	     -3.82449893	     10.15797844	     -1.26481894	      0.94277976	     -0.96095795	     18.16511845	      1.40912127	    -17.16004354	    -21.60355698	     -0.37705320	      0.58732356	     -6.90527892	     -0.96047228	     -3.87545640	     13.39715796	     18.92017119	    -37.48525029	     -0.65424104	     -2.39347133	      9.45747493	     -1.35888606	     -4.61689683	      6.32517551	     -7.21293177	     -0.96043656	     -9.61627845	    -22.84804375	     16.10490130	     89.95437384	      0.00000000	      0.00000000	      5.68378539	      7.66559507	    -12.22327006	     32.53998236	     89.95437384	      0.00000000	      0.00000000
      0.04000000	     -1.80702129	     -4.39905472	     10.77197389	     -1.25911379	      0.94281828	     -0.95976076	     17.98897906	      1.99814340	    -17.87535874	    -21.11065293	     -0.36845040	      0.90750072	     -6.45999021	     -1.06722265	     -1.71297445	     14.25718301	     17.32486266	    -39.86659684	     -0.69580338	     -0.78097673	     11.20164957	     -1.64814580	     -3.98386840	      6.87983816	     -7.82940231	     -0.87198501	     -9.71836717	    -22.54144738	     16.07924475	     89.95437384	      0.00000000	      0.00000000	      5.75743056	      7.60941383	    -12.66300459	     33.06030249	     89.95437384	      0.00000000	      0.00000000
      0.05000000	     -1.73003225	     -4.39229740	     10.76057506	     -1.25264910	      0.94385546	     -0.95812437	     17.29460933	      2.25384428	    -17.85526795	    -20.82188226	     -0.36341040	      1.49738844	     -6.26178365	     -1.17316864	     -0.76160182	     14.49376752	     16.86301053	    -41.34282410	     -0.72156840	      0.68298086	     12.18717995	     -1.85385948	     -4.01506527	      6.84027634	     -7.73285432	     -0.70407707	     -9.78927240	    -22.38557129	     15.87317664	     89.95437384	      0.00000000	      0.00000000	      5.98371671	      7.39771710	    -12.35482575	     33.39080199	     89.95437384	      0.00000000	      0.00000000
      0.06000000	     -1.67303600	     -4.17454472	     10.75683432	     -1.24644592	      0.94491145	     -0.95697681	     16.55450698	      2.17829058	    -18.13121862	    -20.45644239	     -0.35703227	      1.80124633	     -6.06203180	     -1.21229687	      0.19653798	     14.59011674	     16.82777693	    -42.70919827	     -0.74541613	      1.47399595	     12.81853840	     -1.95779759	     -4.07913130	      6.62820205	     -7.63363364	     -0.55294312	     -9.85906265	    -22.24943847	     15.94325917	     89.95437384	      0.00000000	      0.00000000	      6.18953347	      7.24881724	    -12.37395579	     33.65540309	     89.95437384	      0.00000000	      0.00000000
      0.07000000	     -1.86413329	     -4.77644592	     11.19797761	     -1.24050848	      0.94521061	     -0.95598839	     16.09471386	      2.92152870	    -18.70631984	    -19.73529823	     -0.34444593	      1.93251136	     -5.56661143	     -1.25789061	      2.03520702	     15.40017866	     15.72493349	    -44.43980574	     -0.77562093	      2.79457665	     14.39517546	     -1.74536998	     -3.65097968	      7.26234984	     -7.98497031	     -0.44983575	    -10.05298774	    -21.95465060	     15.96890066	     89.95437384	      0.00000000	      0.00000000	      6.22594070	      7.13648429	    -12.32626364	     34.12041826	     89.95437384	      0.00000000	      0.00000000
      0.08000000	     -1.78689545	     -4.69727285	     11.12368344	     -1.23429148	      0.94623179	     -0.95456702	     15.32846381	      3.09881621	    -18.70427151	    -19.26093485	     -0.33616673	      2.37395955	     -5.27077710	     -1.32297355	      2.95031756	     15.54394461	     15.67423497	    -45.40551132	     -0.79247567	      3.85693418	     15.19052886	     -1.74597519	     -3.72363822	      7.14601749	     -7.80802471	     -0.20952051	    -10.12294167	    -21.81822729	     15.84859221	     89.95437384	      0.00000000	      0.00000000	      6.26745760	      7.20983450	    -12.49587712	     34.78260461	     89.95437384	      0.00000000	      0.00000000
      0.09000000	     -1.85892947	     -4.89056736	     11.22145498	     -1.22838998	      0.94698679	     -0.95338130	     14.67747805	      3.46249772	    -19.22807074	    -18.56605339	     -0.32403876	      2.45664896	     -4.69191662	     -1.39368058	      4.25687043	     15.90968356	     15.24871495	    -46.37036291	     -0.80931551	      4.75843718	     15.71714671	     -1.28949973	     -3.58257404	      7.34220045	     -7.77403781	     -0.04794056	    -10.27167125	    -21.52573495	     15.93208458	     89.95437384	      0.00000000	      0.00000000	      6.40103906	      7.18244121	    -12.51100172	     35.20016320	     89.95437384	      0.00000000	      0.00000000
      0.10000000	     -1.89432974	     -4.77359412	     11.09355805	     -1.22258986	      0.94791253	     -0.95205957	     14.08851548	      3.55707022	    -19.17711868	    -18.17129107	     -0.31714886	      2.71417029	     -4.41227416	     -1.45480389	      5.23568150	     15.86057782	     15.10610995	    -46.89783336	     -0.81852160	      5.69430352	     16.07997947	     -1.18922864	     -3.58734201	      7.19949171	     -7.53185050	      0.21376609	    -10.36325922	    -21.39291699	     15.91941001	     89.95437384	      0.00000000	      0.00000000	      6.63845259	      7.12157375	    -12.33520581	     35.36392042	     89.95437384	      0.00000000	      0.00000000
      0.11000000	     -1.98314067	     -4.53808052	     10.88314216	     -1.21663926	      0.94877652	     -0.95074213	     13.55812614	      3.47375398	    -19.42653516	    -17.84446536	     -0.31144467	      2.95564237	     -4.30839270	     -1.47385860	      6.16125598	     15.71999460	     15.25704481	    -47.15851020	     -0.82307127	      6.09302639	     16.10953564	     -1.17082639	     -3.55564581	      6.90763621	     -7.19861184	      0.44518733	    -10.44644701	    -21.25299004	     15.89127901	     89.95437384	      0.00000000	      0.00000000	      6.81309389	      7.15702861	    -12.27293907	     35.56599346	     89.95437384	      0.00000000	      0.00000000
      0.12000000	     -2.05708090	     -4.42759220	     10.76514841	     -1.21075850	      0.94966411	     -0.94958199	     12.96386771	      3.55048060	    -19.49859835	    -17.35108437	     -0.30283355	      3.16635169	     -3.96774969	     -1.50142555	      7.13559336	     15.65826214	     15.30281951	    -47.26105076	     -0.82486094	      6.78444783	     16.32091988	     -1.13176117	     -3.48421343	      6.76310075	     -6.96192774	      0.76407507	    -10.55129592	    -21.12258860	     15.77940161	     89.95437384	      0.00000000	      0.00000000	      7.05362371	      7.13070225	    -12.23056888	     35.56743764	     89.95437384	      0.00000000	      0.00000000
      0.13000000	     -2.14373451	     -4.29291882	     10.55569811	     -1.20492173	      0.95049473	     -0.94848274	     12.43378935	      3.57406637	    -19.48297120	    -17.00968340	     -0.29687498	      3.21823620	     -3.63736749	     -1.53032498	      8.04777543	     15.48655680	     15.22172532	    -47.20337371	     -0.82385429	      7.20591479	     16.28665040	     -1.08255381	     -3.41272948	      6.58780105	     -6.61722993	      1.03621467	    -10.68318210	    -20.94532529	     15.75163504	     89.95437384	      0.00000000	      0.00000000	      7.11290802	      7.24955753	    -12.16758292	     35.97752100	     89.95437384	      0.00000000	      0.00000000
      0.14000000	     -2.23625516	     -4.10694227	     10.35799493	     -1.19977721	      0.95126255	     -0.94708667	     12.13737257	      3.51461776	    -19.46857388	    -17.01084677	     -0.29689528	      3.25586573	     -3.48023855	     -1.53490579	      9.02653288	     15.27490428	     15.17182335	    -46.94575928	     -0.81935807	      7.33929122	     15.97764609	     -1.06112312	     -3.48478832	      6.33578609	     -6.31015734	      1.34370270	    -10.70861109	    -20.77939142	     16.04771409	     89.95437384	      0.00000000	      0.00000000	      7.30639687	      7.41220208	    -12.07222003	     36.23511211	     89.95437384	      0.00000000	      0.00000000
      0.15000000	     -1.98159728	     -3.48655104	     10.17954101	     -1.19338792	      0.95282059	     -0.94682351	     10.94193002	      2.91374234	    -20.08317635	    -16.34034229	     -0.28519277	      3.31067880	     -1.11419505	     -4.77985629	      9.19329540	     14.33867434	     14.98489169	    -46.23132360	     -0.80688881	      9.41493009	     16.01156645	      5.72729342	     -3.79872118	      5.74358822	     -6.13171645	      1.87977905	    -10.83539367	    -20.52938611	     15.65207887	     89.95437384	      0.00000000	      0.00000000	      7.43057952	      7.47781724	    -11.91417300	     36.19502123	     89.95437384	      0.00000000	      0.00000000
      0.16000000	     -2.15440098	     -3.29510087	      9.86349712	     -1.18790081	      0.95327522	     -0.94552399	     10.62239349	      2.85319581	    -20.22550513	    -16.10595724	     -0.28110198	      3.50808074	     -1.10995069	     -4.75838175	     10.13616716	     14.10343253	     15.13244962	    -45.73153529	     -0.79816586	      9.57571023	     15.78767788	      5.63754282	     -3.69549999	      5.47491728	     -5.69606770	      2.20532617	    -10.91304337	    -20.34871062	     15.73783003	     89.95437384	      0.00000000	      0.00000000	      7.50101631	      7.68535297	    -11.90699710	     36.45413610	     89.95437384	      0.00000000	      0.00000000
